<svg xmlns="http://www.w3.org/2000/svg" width="500" height="100"><defs><clipPath clipPathUnits="userSpaceOnUse" id="a"><path d="M-9.75 133.5h391.6V21H-9.75z"/></clipPath></defs><path fill="none" d="M-1-1h502v102H-1z"/><g clip-path="url(#a)" transform="matrix(1.33333 0 0 -1.33333 0 150)"><path fill="#4cc8ef" d="m65.75 47-17.2 53.2c-.8 2.4 1 4.8 3.5 4.8h33.1c2.5 0 4.3-2.4 3.5-4.8L71.35 47c-.9-2.6-4.7-2.6-5.6 0"/><path fill="#4cc8ef" d="m25.35 47-17.3 53.2c-.8 2.4 1 4.8 3.5 4.8h33.1c2.5 0 4.3-2.4 3.5-4.8L30.85 47c-.8-2.6-4.6-2.6-5.5 0"/><path d="M162.55 105.2h-33.6c-2.7 0-5-2.2-5-5V48.5c0-1.9 1.4-3.6 3.4-3.7 2.1-.1 3.8 1.5 3.8 3.6v21.7h15.5c1.6 0 3.1 1.2 3.3 2.8.2 1.9-1.3 3.5-3.1 3.5h-15.6v22.5h31.2c1.6 0 3.1 1.2 3.3 2.8.2 1.9-1.3 3.5-3.2 3.5m45.9-54.1h-26.5v50.4c0 1.9-1.4 3.6-3.4 3.7-2.1.1-3.8-1.5-3.8-3.6V50.7c0-3.2 2.6-5.9 5.9-5.9h27.6c1.6 0 3.1 1.2 3.3 2.8.2 1.9-1.3 3.5-3.1 3.5m61.6 23.9c0-4.5-1.1-8.7-3.2-12.4s-5.1-6.6-8.8-8.7-7.9-3.1-12.5-3.1-8.8 1.1-12.6 3.1c-3.7 2.1-6.7 5-8.8 8.7s-3.2 7.9-3.2 12.4 1.1 8.7 3.2 12.4 5.1 6.6 8.8 8.7 8 3.1 12.6 3.1 8.8-1.1 12.5-3.1c3.7-2.1 6.7-5 8.8-8.7s3.2-7.8 3.2-12.4m-8.3 26.7c-4.8 2.6-10.2 4-16.1 4s-11.4-1.3-16.2-4-8.7-6.4-11.4-11-4.1-9.9-4.1-15.7 1.4-11.1 4.1-15.7 6.5-8.3 11.4-11c4.8-2.7 10.3-4 16.2-4s11.4 1.3 16.1 4c4.8 2.6 8.6 6.3 11.3 11s4.1 10 4.1 15.7c0 5.8-1.4 11.1-4.1 15.7-2.7 4.7-6.5 8.4-11.3 11m105.7 2.1c-.6.9-1.6 1.4-2.7 1.4-1.4 0-2.7-.9-3.1-2.2l-16.2-47.8c0-.1-.1-.1-.1-.1-.1 0-.1 0-.1.1l-16 47c-.6 1.8-2.4 3.1-4.3 3.1s-3.7-1.2-4.3-3.1l-16.4-46.8c0-.1-.1-.1-.1-.1-.1 0-.1 0-.1.1l-15.8 47.2c-.5 1.6-2 2.6-3.7 2.6-1.1 0-2.1-.5-2.7-1.4s-.8-2-.4-3l17.7-52.6c.7-2 2.6-3.4 4.7-3.4s4 1.4 4.7 3.4l15.9 46c0 .1.1.1.2.1 0 0 .1 0 .2-.1l15.8-46c.7-2 2.6-3.4 4.8-3.4s4.1 1.4 4.8 3.4l17.7 52.6c.3 1.1.1 2.1-.5 3"/><path fill="#111" d="m86.05 47-17.3 53.2c-.8 2.4 1 4.8 3.5 4.8h33.1c2.5 0 4.3-2.4 3.5-4.8l-17.3-53.1c-.8-2.7-4.7-2.7-5.5-.1"/><path fill="#111" d="m45.55 47-17.3 53.2c-.8 2.4 1 4.8 3.5 4.8h33.1c2.5 0 4.3-2.4 3.5-4.8L51.15 47c-.9-2.6-4.7-2.6-5.6 0"/></g></svg>