<svg width="300" height="533" viewBox="0 0 300 533" fill="none" xmlns="http://www.w3.org/2000/svg">
  <path d="M119.447 235.256H118.621H118.345L117.794 234.7L116.416 233.866V233.31L116.141 233.031V232.753V231.919L113.385 215.793L104.844 217.739L103.466 231.919V232.475V232.753V233.031V234.422H102.364L101.813 234.7L101.537 234.978H100.986H100.435H96.8532H96.5776H96.3021H96.0265H95.751H94.3733V233.588L94.0978 233.31V232.753C93.2712 229.973 87.2094 210.232 87.2094 203.281C87.2094 202.447 87.2094 201.335 87.4849 200.501C86.1072 198.833 85.5562 196.886 85.5562 194.94C85.5562 189.935 89.4137 186.043 94.3733 186.043C96.3021 186.043 98.2308 186.599 99.8841 187.989C100.711 187.711 101.813 187.711 102.639 187.711H114.212C114.487 187.711 115.314 187.711 115.59 186.043C116.692 176.868 118.896 157.961 118.896 152.956V152.678V152.122V151.844L119.172 151.566V151.01L119.723 150.732L119.998 150.176H120.549L120.825 149.898H121.376H122.478H122.754H123.305H123.58L123.856 150.176H125.233V151.566C127.162 153.79 128.54 155.737 129.366 157.127C130.469 157.683 132.122 158.239 133.775 159.351C134.877 160.185 135.979 160.741 136.53 161.298C137.357 161.854 139.01 163.244 139.01 165.468C139.01 167.136 138.184 169.083 134.877 170.473C134.326 170.751 133.775 170.751 133.224 171.029C135.428 177.98 139.01 190.77 139.01 197.443C139.01 202.169 139.01 209.12 130.193 213.013L127.162 233.031V231.919V232.197V232.753L126.887 233.31L126.336 234.144H126.06H125.784L125.509 234.422H125.233L124.958 234.7H124.131H123.58H119.447V235.256Z" fill="black"/>
  <path d="M268.237 129.879C267.686 125.152 266.859 120.426 266.033 115.699C264.93 110.694 263.553 105.968 261.9 100.963C260.246 96.2363 258.318 91.7877 256.113 87.6171C254.185 83.4465 251.705 79.554 249.225 75.6614C234.346 52.8623 211.752 35.9019 185.576 27.5608C177.31 25.0584 168.768 23.3902 159.951 22.5561C156.645 22.278 153.338 22 150.032 22C110.63 22 75.9124 41.4627 54.1451 71.2128C50.2876 76.4956 46.9811 81.7783 43.9502 87.6171C41.7459 91.7877 39.8172 96.2363 38.1639 100.963C34.8575 110.138 32.6532 119.87 31.5511 129.601C31.2755 133.493 31 137.664 31 141.835V389.567C31 426.546 47.5322 459.633 73.7082 481.598C83.3519 489.939 94.3734 496.612 106.497 501.339C107.875 501.895 108.977 502.451 110.354 503.007C122.754 507.455 135.979 509.68 149.756 509.68C173.452 509.68 195.771 502.729 214.232 490.495C229.662 480.486 242.612 466.862 251.98 450.736C257.767 440.726 262.451 429.883 265.206 418.205C267.41 409.03 268.512 399.576 268.512 389.845V141.835C269.064 137.942 268.788 133.772 268.237 129.879ZM169.319 47.0235C185.3 50.3599 199.904 57.5889 212.027 67.8764C212.303 68.1544 212.579 68.1544 212.579 68.4324C218.916 73.9932 224.702 80.3881 229.386 87.6171C232.693 92.6218 235.724 98.1826 238.203 103.743C238.755 104.856 239.03 105.968 239.581 107.08C242.336 114.309 244.265 121.816 245.367 129.879C245.367 130.157 245.367 130.157 245.367 130.435C238.203 133.493 230.213 135.162 221.947 135.162C189.158 135.162 162.431 108.192 162.431 75.1054C162.431 65.096 164.911 55.3646 169.319 47.0235ZM53.8695 218.017L54.6961 218.851L66.8197 231.363L82.2498 247.211L94.6489 260.001L82.5253 272.791L68.473 287.527L58.8292 297.536L54.9717 301.707L54.1451 302.541V218.017H53.8695ZM64.6155 408.474C62.9622 415.147 62.4112 422.098 62.4112 429.048C60.7579 425.434 59.3803 421.542 58.2781 417.649C55.7983 409.03 54.1451 399.576 54.1451 389.845V387.065C59.3803 387.899 64.891 388.455 70.6772 388.455C70.9528 388.455 71.2283 388.455 71.7794 388.455C68.473 394.85 65.9931 401.523 64.6155 408.474ZM150.032 486.881C130.744 486.881 112.834 481.042 97.6798 471.31C93.5468 468.808 89.9648 465.75 86.3828 462.691C82.5253 454.906 80.321 446.287 79.4944 437.39C79.2189 435.165 79.2189 432.941 79.2189 430.717V429.327C79.2189 426.824 79.2189 424.322 79.4944 422.098C80.0455 417.371 80.8721 412.922 81.9742 408.752C82.8009 405.415 83.903 402.357 85.2807 399.298C85.0052 402.357 85.0052 405.415 85.2807 408.474C85.2807 409.308 85.2807 410.142 85.5562 410.976C86.1073 417.649 87.7605 423.766 89.9648 429.605V429.883C94.3734 440.726 100.986 449.901 109.803 457.13C123.029 467.974 140.112 474.091 158.298 472.423C158.573 472.423 158.849 472.423 159.124 472.423L207.894 467.696C191.913 479.652 171.799 486.881 150.032 486.881ZM130.744 378.168C129.642 379.836 128.54 381.226 127.438 382.894C125.509 385.118 123.58 387.065 121.376 389.011C115.865 394.016 109.252 397.63 102.088 399.576C102.639 394.294 103.742 389.289 105.67 384.562C105.67 384.284 105.67 384.284 105.946 384.006C109.803 375.109 115.865 367.324 123.856 362.041C128.264 358.983 133.224 356.48 138.459 355.09C138.184 358.705 137.633 362.041 136.53 365.1C135.428 369.548 133.224 374.275 130.744 378.168ZM145.072 446.565C146.45 449.345 147.552 452.126 148.379 455.184C137.082 454.072 126.887 449.345 118.896 442.116C114.212 437.946 110.355 432.663 107.324 426.824C105.946 424.044 104.844 421.263 104.017 418.205C110.354 418.761 116.692 420.429 122.203 423.21C125.509 424.878 128.815 427.102 131.846 429.605C137.357 434.331 142.041 440.17 145.072 446.565ZM235.448 434.609C232.968 439.336 230.213 443.785 226.906 448.233L216.712 449.345L215.058 432.385L223.6 431.551H223.876C228.284 431.273 232.417 431.829 236.275 433.497C235.999 433.775 235.724 434.331 235.448 434.609ZM246.194 389.845C246.194 393.182 245.918 396.518 245.643 399.854C245.643 400.689 245.367 401.523 245.367 402.357C244.541 408.474 243.163 414.312 241.234 420.151C240.683 421.541 240.408 422.654 239.857 424.044C240.408 421.542 240.683 419.317 240.959 416.815C238.203 415.703 235.448 414.869 232.417 414.591C231.591 414.312 231.039 414.312 230.213 414.312C228.835 414.034 227.182 414.034 225.804 414.034C224.427 414.034 223.049 414.034 221.671 414.312C221.396 414.312 221.396 414.312 221.396 414.312L205.415 415.981C205.139 415.981 205.139 415.981 205.139 415.981C200.455 416.537 197.148 420.707 197.424 425.434L198.526 437.112L198.802 440.448L199.904 451.014L165.737 454.35C165.186 451.57 164.36 448.789 163.258 446.287C159.676 436.278 153.889 427.102 145.899 419.873C145.072 419.039 144.245 418.205 143.143 417.371C162.706 410.976 179.514 403.469 189.433 397.908C207.894 387.621 230.764 377.333 245.918 370.66V389.845H246.194ZM246.194 347.305C232.142 353.144 202.659 365.934 179.239 379.002C169.319 384.562 154.44 390.957 138.459 396.24C139.01 395.406 139.837 394.85 140.388 394.016C140.664 393.738 140.939 393.182 141.215 392.904C146.174 386.231 150.032 379.002 152.512 371.217C166.839 365.934 178.963 360.373 186.954 355.924C206.517 344.803 231.315 333.959 246.194 327.564V347.305ZM246.194 303.931C233.519 309.214 201.557 322.56 176.483 336.74C170.697 340.076 163.533 343.413 155.542 346.471C155.542 345.637 155.542 344.525 155.267 343.691C154.991 342.022 154.44 340.632 153.614 339.242C151.961 337.296 149.481 335.906 147.001 335.906C146.725 335.906 146.45 335.906 146.174 335.906C144.797 335.906 143.694 336.184 142.317 336.462C139.561 336.74 136.806 337.296 134.326 337.852C123.029 340.632 112.283 345.359 102.639 351.754C97.1288 355.646 91.8936 360.373 86.9339 365.378C73.7081 367.046 62.1356 367.324 53.8695 364.822V336.184C54.1451 336.184 54.4206 336.462 54.6961 336.462C62.1356 337.852 70.1262 338.408 78.3923 338.408C81.4232 338.408 84.4541 338.408 87.2094 338.13C89.6893 337.852 92.4446 337.852 94.9245 337.574C107.324 336.184 118.621 333.403 129.091 330.067C142.317 325.896 154.44 320.613 165.737 315.053C169.87 313.106 174.279 310.882 178.412 308.936C188.056 304.209 197.424 299.483 207.343 295.312C210.099 294.2 212.854 292.81 215.885 291.975C222.222 289.473 228.56 287.527 235.448 285.859C238.754 285.025 242.336 284.19 245.643 283.634V303.931H246.194ZM246.194 260.557C240.683 261.391 235.448 262.503 230.213 263.894C209.548 269.176 191.913 277.518 175.106 285.859C173.177 286.693 171.248 287.805 169.595 288.639C165.462 290.585 161.604 292.532 157.747 294.478C154.165 296.146 150.583 297.814 147.001 299.483C133.775 305.599 119.998 310.604 104.293 313.384C100.711 313.941 97.1288 314.497 93.2712 315.053C91.0669 315.331 88.5871 315.609 86.3828 315.609C81.4232 315.887 76.7391 315.887 72.0549 315.609L86.1073 300.873L95.2 291.419L108.701 277.239L115.039 270.567L130.193 254.996L148.654 235.812L162.706 221.354H162.982L163.258 221.632L177.034 235.812L177.31 236.09L190.26 249.436L196.046 255.274L199.904 259.445L210.925 248.045L219.191 239.426L233.244 224.968L247.021 210.51V260.557H246.194ZM246.194 178.814L234.897 190.491L215.885 210.232L203.21 223.3L199.077 227.749L198.526 227.193L182.27 210.232L163.258 190.491L162.431 189.657L161.604 190.491L142.592 210.232L113.936 240.26L110.079 244.153L86.3828 219.685L77.2901 210.232L58.2781 190.491L54.9717 187.155L54.1451 186.321V142.113C54.1451 139.61 54.1451 137.108 54.4206 134.606C54.4206 132.937 54.6961 131.547 54.9717 129.879C55.7983 122.094 57.727 114.309 60.4824 107.08C63.2378 100.129 66.5442 93.734 70.6772 87.6171C75.3614 80.3881 81.1476 73.9932 87.485 68.4324C87.7605 68.1544 88.036 68.1544 88.3116 67.8764C104.293 54.2525 124.407 45.9113 146.725 45.0772C143.143 54.2525 141.215 64.5399 141.215 75.1054C141.215 120.148 177.585 156.849 222.222 156.849C230.764 156.849 238.754 155.459 246.47 153.234V178.814H246.194Z" fill="#000000"/>
  <style>
    path {
      fill: #000000;
    }
    @media (prefers-color-scheme: dark) {
      path {
        fill: #ffffff;
      }
    }
  </style>
</svg>
